<!-- <g id="SvgjsG1017" featurekey="symbolFeature-0"
    transform="matrix(1.7499998331070106,0,0,1.7499998331070106,87.5000016689299,-22.499991655350527)"
    fill="#111111">
    <path xmlns="http://www.w3.org/2000/svg"
        d="M330,175 c30,0,60,60,120,60 c60,0,90,-60,151,-60 c59,0,89,60,149,60 c75,0,90,-60,120,-60 c15,0,30,15,30,30 l0,345 c0,405,-600,405,-600,0 l0,-345 c0,-15,15,-30,30,-30 Z M480,475 c-34,0,-60,26,-60,60 c0,34,26,60,60,60 c34,0,60,-26,60,-60 c0,-34,-26,-60,-60,-60 Z M720,475 c-34,0,-60,26,-60,60 c0,34,26,60,60,60 c34,0,60,-26,60,-60 c0,-34,-26,-60,-60,-60 Z M50,0 c-50,0,-50,0,-50,50 l0,1100 c0,50,0,50,50,50 l1100,0 c50,0,50,0,50,-50 l0,-1100 c0,-50,0,-50,-50,-50 Z M150,1000 c28,0,50,22,50,50 c0,28,-22,50,-50,50 c-28,0,-50,-22,-50,-50 c0,-28,22,-50,50,-50 Z M301,1000 c29,0,50,22,50,50 c0,28,-21,50,-50,50 c-28,0,-50,-22,-50,-50 c0,-28,22,-50,50,-50 Z M450,1000 c28,0,50,22,50,50 c0,28,-22,50,-50,50 c-28,0,-50,-22,-50,-50 c0,-28,22,-50,50,-50 Z M450,1000 "
        fill="#111111" stroke="none" stroke-dasharray="none" stroke-linecap="inherit"
        stroke-linejoin="inherit" stroke-width="1"
        transform="matrix(0.0666666666667,0.0,0.0,-0.0666666666667,10.0,90.0)"></path>
</g> -->
<!-- <svg xmlns="http://www.w3.org/2000/svg" viewBox="0 0 48 48" width="48" height="48">
    <style>
        tspan { white-space:pre }
        .shp0 { fill: #58b5fc } 
    </style>
    <g id="side menu">
        <path xmlns="http://www.w3.org/2000/svg"
        d="M330,175 c30,0,60,60,120,60 c60,0,90,-60,151,-60 c59,0,89,60,149,60 c75,0,90,-60,120,-60 c15,0,30,15,30,30 l0,345 c0,405,-600,405,-600,0 l0,-345 c0,-15,15,-30,30,-30 Z M480,475 c-34,0,-60,26,-60,60 c0,34,26,60,60,60 c34,0,60,-26,60,-60 c0,-34,-26,-60,-60,-60 Z M720,475 c-34,0,-60,26,-60,60 c0,34,26,60,60,60 c34,0,60,-26,60,-60 c0,-34,-26,-60,-60,-60 Z M50,0 c-50,0,-50,0,-50,50 l0,1100 c0,50,0,50,50,50 l1100,0 c50,0,50,0,50,-50 l0,-1100 c0,-50,0,-50,-50,-50 Z M150,1000 c28,0,50,22,50,50 c0,28,-22,50,-50,50 c-28,0,-50,-22,-50,-50 c0,-28,22,-50,50,-50 Z M301,1000 c29,0,50,22,50,50 c0,28,-21,50,-50,50 c-28,0,-50,-22,-50,-50 c0,-28,22,-50,50,-50 Z M450,1000 c28,0,50,22,50,50 c0,28,-22,50,-50,50 c-28,0,-50,-22,-50,-50 c0,-28,22,-50,50,-50 Z M450,1000 "
        fill="#111111" stroke="none" stroke-dasharray="none" stroke-linecap="inherit"
        stroke-linejoin="inherit" stroke-width="1"
        transform="matrix(0.0666666666667,0.0,0.0,-0.0666666666667,10.0,90.0)"></path>
    </g>
</svg> -->

<svg xmlns="http://www.w3.org/2000/svg" width="90" height="90">
    <style>
        tspan { white-space:pre }
        .shp0 { fill: #58b5fc } 
    </style>
    <g id="side menu">
        <path xmlns="http://www.w3.org/2000/svg"
        d="M330,175 c30,0,60,60,120,60 c60,0,90,-60,151,-60 c59,0,89,60,149,60 c75,0,90,-60,120,-60 c15,0,30,15,30,30 l0,345 c0,405,-600,405,-600,0 l0,-345 c0,-15,15,-30,30,-30 Z M480,475 c-34,0,-60,26,-60,60 c0,34,26,60,60,60 c34,0,60,-26,60,-60 c0,-34,-26,-60,-60,-60 Z M720,475 c-34,0,-60,26,-60,60 c0,34,26,60,60,60 c34,0,60,-26,60,-60 c0,-34,-26,-60,-60,-60 Z M50,0 c-50,0,-50,0,-50,50 l0,1100 c0,50,0,50,50,50 l1100,0 c50,0,50,0,50,-50 l0,-1100 c0,-50,0,-50,-50,-50 Z M150,1000 c28,0,50,22,50,50 c0,28,-22,50,-50,50 c-28,0,-50,-22,-50,-50 c0,-28,22,-50,50,-50 Z M301,1000 c29,0,50,22,50,50 c0,28,-21,50,-50,50 c-28,0,-50,-22,-50,-50 c0,-28,22,-50,50,-50 Z M450,1000 c28,0,50,22,50,50 c0,28,-22,50,-50,50 c-28,0,-50,-22,-50,-50 c0,-28,22,-50,50,-50 Z M450,1000 "
        fill="#111111" stroke="none" stroke-dasharray="none" stroke-linecap="inherit"
        stroke-linejoin="inherit" stroke-width="1"
        transform="matrix(0.0666666666667,0.0,0.0,-0.0666666666667,10.0,90.0)"></path>
    </g>
</svg>